PathFileType	4	(X/Y/Z)	 s02c0102.trc
DataRate	CameraRate	NumFrames	NumMarkers	Units	OrigDataRate	OrigDataStartFrame	OrigNumFrames
200	200	5	51	mm	200	1251	2000
Frame#	Time	racr			lacr			c7			jug			rlel			rdr			llel			ldr			s2			lic			ric			lasi			rasi			rpsi			lpsi			rgt			lgt			rth1			rth2			rth3			rth4			rlfc			rmfc			rsh1			rsh2			rsh3			rsh4			rlmal			rmmal			rcal			rtoe			rmt5			rmt1			lth1			lth2			lth4			lth3			llfc			lmfc			lsh1			lsh2			lsh3			lsh4			llmal			lmmal			lcal			ltoe			lmt5			SBIKE			LBIKE			RBIKE			
		X1	Y1	Z1	X2	Y2	Z2	X3	Y3	Z3	X4	Y4	Z4	X5	Y5	Z5	X6	Y6	Z6	X7	Y7	Z7	X8	Y8	Z8	X9	Y9	Z9	X10	Y10	Z10	X11	Y11	Z11	X12	Y12	Z12	X13	Y13	Z13	X14	Y14	Z14	X15	Y15	Z15	X16	Y16	Z16	X17	Y17	Z17	X18	Y18	Z18	X19	Y19	Z19	X20	Y20	Z20	X21	Y21	Z21	X22	Y22	Z22	X23	Y23	Z23	X24	Y24	Z24	X25	Y25	Z25	X26	Y26	Z26	X27	Y27	Z27	X28	Y28	Z28	X29	Y29	Z29	X30	Y30	Z30	X31	Y31	Z31	X32	Y32	Z32	X33	Y33	Z33	X34	Y34	Z34	X35	Y35	Z35	X36	Y36	Z36	X37	Y37	Z37	X38	Y38	Z38	X39	Y39	Z39	X40	Y40	Z40	X41	Y41	Z41	X42	Y42	Z42	X43	Y43	Z43	X44	Y44	Z44	X45	Y45	Z45	X46	Y46	Z46	X47	Y47	Z47	X48	Y48	Z48	X49	Y49	Z49	X50	Y50	Z50	X51	Y51	Z51	
1251	6.2550	554.564338	1198.578594	-152.218377	537.206491	1205.610009	-480.388303	538.500769	1232.729542	-318.598233	475.200741	1102.251772	-318.171757	560.944617	959.417804	-38.226096	724.882131	845.998462	-109.440997	494.559676	940.195916	-571.055412	697.338101	855.521660	-502.469639	6.038790	1101.563703	-304.401577	145.862653	1103.004621	-440.800717	135.874448	1102.682638	-161.575005	183.865606	1079.094093	-421.827427	185.349838	1071.065197	-188.766578	36.098367	1153.317908	-256.249548	44.365202	1165.408955	-340.421773	107.822444	1013.409968	-121.567759	90.736092	1026.471594	-486.972415	196.162936	971.711468	-122.132035	280.164947	944.461227	-122.634841	340.252589	889.176717	-95.935373	297.503579	967.233354	-147.624126	428.356263	778.526681	-122.013372	416.946446	761.911015	-233.844591	367.862788	681.020242	-113.813867	314.945825	610.990142	-138.429357	238.114590	572.272399	-135.454339	325.774558	606.496106	-175.160893	141.119675	508.755189	-144.961975	166.507757	520.048161	-224.525552	59.061732	527.310787	-191.816414	240.020326	304.905524	-185.748936	156.544227	377.930074	-130.608431	184.490236	364.787133	-238.285330	220.455088	940.733527	-493.489955	297.051253	900.595990	-486.910750	319.288735	925.522970	-471.592606	343.727026	824.729840	-485.736425	414.715618	753.927541	-462.350028	422.098895	720.248359	-360.207909	409.227491	648.202393	-487.002845	417.469103	563.204691	-474.039702	381.190684	480.316012	-480.141359	433.860448	562.176371	-436.528474	344.354212	377.500232	-473.665096	359.589141	372.342291	-395.621487	277.695862	325.776916	-440.218785	566.412457	294.341145	-435.473803	460.269910	282.488939	-500.526335	-162.785937	859.562560	-311.303780	37.122163	85.960695	-514.249131	33.902683	83.016929	-114.110933	
1252	6.2600	554.239073	1198.598100	-150.320759	539.426731	1203.734536	-479.021952	539.818568	1231.808467	-316.758818	475.149069	1102.009917	-315.992708	560.450804	959.345708	-36.909652	724.877740	845.858791	-109.766011	496.163589	939.110990	-572.053197	698.040034	854.268799	-502.660384	7.680133	1100.987784	-306.629907	148.241281	1101.209059	-440.970703	136.304485	1102.964820	-162.248392	186.125213	1077.880142	-422.320349	186.251758	1071.548816	-188.979080	37.000734	1152.702571	-257.632824	45.776292	1164.049837	-341.782915	109.604332	1014.396690	-121.469251	93.562748	1024.196065	-487.483086	197.555265	974.641384	-122.423981	282.407296	949.584126	-121.876930	343.133389	894.986239	-95.527496	299.058478	972.209562	-147.537650	433.748349	786.211325	-121.446406	424.457285	770.220093	-235.581287	372.788370	688.869586	-113.504829	318.499589	619.820126	-138.618544	241.978846	581.740227	-135.458366	330.737232	615.274787	-174.181441	144.483026	519.159676	-145.317953	168.071776	530.788987	-224.444270	62.324107	537.934222	-192.099164	243.389641	315.616308	-185.781455	160.296586	388.589127	-130.356482	187.840182	375.243180	-238.463678	221.683669	936.791113	-493.857572	297.339726	894.921910	-487.748329	320.042756	919.020851	-471.793901	341.823476	817.643503	-485.694082	410.875267	745.582814	-462.681460	414.291275	710.773124	-361.181851	405.415734	639.949545	-487.653604	414.487653	554.958348	-474.758430	379.094476	471.708595	-480.900463	430.847171	554.192946	-437.295061	343.401151	368.960231	-474.390864	358.402974	363.825415	-396.419544	276.275339	318.788673	-441.133975	564.320183	281.665237	-435.416363	458.189809	271.910560	-500.621023	-162.670660	859.687018	-311.264108	37.149097	85.883462	-514.263760	33.946644	83.003826	-114.118361	
1253	6.2650	553.919917	1198.983053	-148.485134	541.584801	1202.432010	-477.414048	541.120715	1231.306295	-314.775581	475.062041	1102.215374	-313.750231	560.133430	959.413141	-35.910984	724.971998	845.817087	-110.337266	497.923300	938.769898	-572.985577	698.896361	853.113364	-502.605820	9.034497	1100.960036	-308.782293	150.333278	1100.079800	-441.547800	136.704625	1103.882109	-162.935819	188.513009	1076.957224	-422.713123	187.002730	1072.593977	-189.256016	38.011161	1152.728817	-259.200052	47.085977	1163.301246	-343.181791	111.231171	1015.905723	-121.353747	96.596540	1021.902370	-487.915733	198.750803	978.016048	-122.782673	284.214784	954.594579	-121.503980	345.496747	900.846999	-95.424251	300.749823	978.243278	-146.417566	438.834498	794.321517	-120.987667	429.842534	778.136232	-235.020487	377.687957	697.057142	-113.188197	322.782449	628.697782	-138.440979	245.999404	591.211301	-135.518633	334.447712	622.679340	-175.430614	148.135742	529.389308	-145.615454	170.538463	540.783654	-224.806717	65.799605	548.066261	-192.318104	247.328431	326.149467	-185.943931	164.079608	398.957331	-130.655678	191.651973	385.663170	-238.571807	222.836562	932.907083	-494.272692	297.377504	889.066441	-488.071453	320.624100	912.583312	-472.111386	339.738889	810.635775	-485.883928	406.722056	737.207338	-463.187441	409.728560	703.799084	-362.240412	401.135649	631.976005	-488.358186	410.924495	547.059022	-475.689721	376.374901	463.484663	-481.650922	427.280736	546.561437	-437.817425	341.980734	360.749959	-474.984747	356.599110	355.495164	-397.188178	274.198988	312.371014	-442.118900	561.374110	269.447957	-435.048038	455.439069	261.789458	-500.759657	-162.600208	859.865246	-311.154938	37.152307	85.900247	-514.267771	33.945068	83.000406	-114.125519	
1254	6.2700	553.564542	1199.612982	-146.570832	543.743530	1201.701625	-475.725472	542.404036	1231.152907	-312.855550	474.969731	1102.780998	-311.670382	560.204893	959.561337	-35.369972	725.208182	846.004750	-110.439080	500.093282	939.188366	-573.992597	699.876144	852.159361	-502.384761	10.281171	1101.547467	-311.602250	153.512597	1099.899600	-441.693114	137.024381	1104.941365	-163.620994	190.810363	1076.438951	-423.169432	187.813877	1074.021481	-189.618497	39.054212	1153.216217	-260.873993	49.728770	1164.203232	-345.319419	112.636444	1017.791543	-121.401759	99.732410	1019.800953	-488.141677	199.722698	981.624858	-123.128815	285.207902	959.767869	-121.516671	348.001555	907.306488	-94.858745	302.137063	984.066542	-145.248773	443.733052	802.818072	-120.552113	434.131280	785.857158	-233.508391	381.997575	705.616398	-113.135710	327.124856	637.518582	-138.288659	250.107868	600.677638	-135.681161	338.777941	631.328239	-175.502399	152.038940	539.456490	-145.944136	174.432771	550.753112	-225.130689	69.973010	557.832232	-192.877692	252.003917	336.637907	-186.016080	168.480126	409.293624	-130.742402	195.991660	395.852556	-238.687115	223.777597	929.115078	-494.720327	297.177994	883.203289	-488.491804	320.977610	906.190667	-472.413455	337.339526	803.776045	-485.949062	402.375393	728.957204	-463.358231	403.996274	695.965836	-363.419577	396.248303	624.405193	-489.101773	406.770759	539.597531	-476.212371	372.940920	455.739685	-482.436499	423.172280	538.763444	-437.807653	339.630670	353.106929	-475.842229	353.731616	347.673249	-398.210325	271.588458	306.196222	-443.027173	557.796756	257.522191	-434.952784	451.902167	251.958078	-500.916998	-162.684465	859.860980	-311.265065	37.124133	85.931871	-514.272731	33.943456	83.007488	-114.138711	
1255	6.2750	553.148029	1200.510346	-144.538113	545.886077	1201.556137	-473.807124	543.629228	1231.317218	-310.893743	474.951795	1103.611244	-309.627697	560.470830	959.934193	-35.154144	725.541129	846.162986	-110.252794	502.393396	939.971537	-574.712458	701.247004	851.798395	-502.039221	11.910858	1102.261348	-312.315342	156.063552	1099.537234	-442.369678	137.208840	1106.283803	-164.507297	193.075946	1076.122311	-423.586434	188.360977	1075.627111	-190.138955	40.130353	1154.054011	-262.852514	51.631406	1164.630290	-347.447558	113.725019	1020.219093	-121.490977	102.953840	1017.790800	-488.127364	200.562177	985.622231	-122.961938	286.545197	965.411065	-120.882232	350.141252	913.984560	-94.395687	302.921299	989.984937	-144.795090	448.421036	811.717115	-120.145045	438.352609	793.580596	-232.391201	386.707014	714.403714	-112.968520	331.531546	646.702880	-138.246201	254.337990	610.020224	-135.838159	344.124329	641.209964	-173.593011	156.327561	549.213484	-146.198584	178.614123	560.340020	-225.403163	73.670742	566.929591	-192.731734	257.314599	347.049493	-186.130307	173.460495	419.254071	-130.913598	200.990281	405.768643	-238.743343	224.471955	925.541831	-495.169012	296.565328	877.675346	-488.824827	321.074111	900.027954	-472.912679	334.605742	797.177396	-485.998029	397.803440	721.412971	-463.639654	398.230078	688.285993	-364.359206	391.037406	617.318433	-489.830666	402.138935	532.600818	-476.995985	368.978263	448.413490	-483.315651	418.386187	532.285612	-439.207357	336.836094	345.767126	-476.775061	350.737333	340.158464	-399.056165	268.441009	300.439754	-443.967654	553.593306	245.884255	-434.673467	447.909586	242.335108	-500.991774	-162.600703	859.088968	-313.668697	37.239094	85.991553	-514.270836	33.929224	83.045845	-114.134906	
